<svg xmlns="http://www.w3.org/2000/svg" width="12" height="13.714" viewBox="0 0 12 13.714"><defs><style>.a{fill:#f1f1f1;}</style></defs><path class="a" d="M-14181.093-4855.461a.428.428,0,0,1-.015-.716.431.431,0,0,1,.472-.01,6.786,6.786,0,0,0,.968.5,6.776,6.776,0,0,0,2.668.54,6.8,6.8,0,0,0,2.669-.539,6.9,6.9,0,0,0,.969-.5.426.426,0,0,1,.47.009.428.428,0,0,1-.015.717,7.683,7.683,0,0,1-4.093,1.173A7.672,7.672,0,0,1-14181.093-4855.461ZM-14183-4862a6,6,0,0,1,6-6,6,6,0,0,1,6,6,6,6,0,0,1-6,6A6,6,0,0,1-14183-4862Zm3,0a3,3,0,0,0,3,3,3,3,0,0,0,3-3,3,3,0,0,0-3-3A3,3,0,0,0-14180-4862Zm2.357-3.857a.643.643,0,0,0,.643.643.643.643,0,0,0,.643-.643.642.642,0,0,0-.643-.643A.643.643,0,0,0-14177.643-4865.858Zm-.872,5.372a2.123,2.123,0,0,1-.628-1.515,2.123,2.123,0,0,1,.628-1.515,2.123,2.123,0,0,1,1.515-.628,2.123,2.123,0,0,1,1.515.628,2.123,2.123,0,0,1,.628,1.515,2.123,2.123,0,0,1-.628,1.515,2.123,2.123,0,0,1-1.515.628A2.123,2.123,0,0,1-14178.515-4860.486Z" transform="translate(14183 4868.001)"/></svg>