<svg xmlns="http://www.w3.org/2000/svg" width="24" height="24" viewBox="0 0 24 24"><path  d="M12,.3C5.377.3.007,2.815,0,5.918V18.675C0,21.78,5.372,24.3,12,24.3s12-2.52,12-5.625V5.918C23.993,2.815,18.623.3,12,.3ZM3.938,21.293a.938.938,0,1,1,.938-.937A.937.937,0,0,1,3.938,21.293ZM22.5,16.87a11.913,11.913,0,0,1-1.378.755A22.061,22.061,0,0,1,12,19.413a22.061,22.061,0,0,1-9.122-1.788A11.913,11.913,0,0,1,1.5,16.87V15.014c2.046,1.73,5.981,2.9,10.5,2.9s8.454-1.17,10.5-2.9V16.87ZM3,13.98a.938.938,0,1,1,.938.938A.937.937,0,0,1,3,13.98Zm19.5-3.473a11.913,11.913,0,0,1-1.378.755A22.061,22.061,0,0,1,12,13.05a22.061,22.061,0,0,1-9.122-1.788A11.912,11.912,0,0,1,1.5,10.507V8.651c2.046,1.73,5.981,2.9,10.5,2.9s8.454-1.17,10.5-2.9v1.856Z" transform="translate(0 -0.3)"/></svg>
