<svg xmlns="http://www.w3.org/2000/svg" width="24" height="24" viewBox="0 0 24 24"><defs><style>.a{fill:#f1f1f1;}</style></defs><path class="a" d="M63.207,75.189a12,12,0,1,1,12-12,12,12,0,0,1-12,12Zm0-22.665A10.666,10.666,0,1,0,73.87,63.189,10.666,10.666,0,0,0,63.207,52.524Zm4.52,11.865a1.344,1.344,0,0,1-1.343-1.333,1.277,1.277,0,0,1,.4-.939,1.3,1.3,0,0,1,.947-.392,1.284,1.284,0,0,1,.524.107,1.419,1.419,0,0,1,.426.285,1.353,1.353,0,0,1,.289.422,1.264,1.264,0,0,1,.1.517,1.29,1.29,0,0,1-.392.942A1.308,1.308,0,0,1,67.727,64.388Zm-4.721,0A1.3,1.3,0,0,1,62.058,64a1.32,1.32,0,0,1,0-1.882,1.333,1.333,0,0,1,1.47-.282,1.426,1.426,0,0,1,.426.282,1.491,1.491,0,0,1,.289.422A1.319,1.319,0,0,1,63.953,64a1.3,1.3,0,0,1-.946.39Zm-4.726,0a1.332,1.332,0,1,1,0-2.664,1.315,1.315,0,0,1,.522.107,1.454,1.454,0,0,1,.424.284,1.362,1.362,0,0,1,.286.422,1.334,1.334,0,0,1-1.232,1.851Z" transform="translate(-51.205 -51.189)"/></svg>