<svg xmlns="http://www.w3.org/2000/svg" width="12" height="12" viewBox="0 0 12 12"><defs><style>.a{fill:#f1f1f1;}</style></defs><path class="a" d="M102,96a6,6,0,1,1-6,6A6,6,0,0,1,102,96Zm-.462,6.462H99.7q.019.443.074.861l.029.206.036.22c.285,1.628.948,2.852,1.7,3.216Zm2.759,0h-1.836v4.5c.734-.357,1.384-1.534,1.678-3.108l.02-.108.036-.22a10.11,10.11,0,0,0,.1-1.067Zm-5.52,0H96.944a5.082,5.082,0,0,0,2.973,4.169,6.622,6.622,0,0,1-.775-1.789l-.044-.16-.051-.2L99,104.269a10.739,10.739,0,0,1-.222-1.807Zm8.278,0h-1.835a10.856,10.856,0,0,1-.183,1.617l-.039.19-.047.209-.051.2a6.78,6.78,0,0,1-.819,1.949,5.081,5.081,0,0,0,2.972-4.169Zm-7.14-5.093-.041.019a5.081,5.081,0,0,0-2.931,4.151h1.834a10.873,10.873,0,0,1,.183-1.618l.039-.19.047-.209.051-.2a6.78,6.78,0,0,1,.819-1.949Zm1.622-.334c-.731.355-1.38,1.527-1.676,3.1l-.022.121-.036.22a10.111,10.111,0,0,0-.1,1.067h1.836Zm2.545.334.037.058a6.7,6.7,0,0,1,.737,1.724l.045.166.051.2.047.209a10.73,10.73,0,0,1,.222,1.808h1.834a5.08,5.08,0,0,0-2.973-4.169Zm-1.622-.334v4.5H104.3q-.019-.444-.077-.885l-.026-.182-.036-.22c-.285-1.628-.948-2.852-1.7-3.216Z" transform="translate(-96 -96)"/></svg>