<svg xmlns="http://www.w3.org/2000/svg" width="12" height="12" viewBox="0 0 12 12"><defs><style>.a{fill:#f1f1f1;}</style></defs><path class="a" d="M75.571,69.571a.429.429,0,0,1,0,.857h-.643v1.5h.643a.429.429,0,1,1,0,.857h-.643v1.286a.86.86,0,0,1-.857.857H72.786v.643a.429.429,0,1,1-.857,0v-.643h-1.5v.643a.429.429,0,0,1-.857,0v-.643h-1.5v.643a.429.429,0,1,1-.857,0v-.643H65.929a.86.86,0,0,1-.857-.857V72.786h-.643a.429.429,0,1,1,0-.857h.643v-1.5h-.643a.429.429,0,0,1,0-.857h.643v-1.5h-.643a.429.429,0,1,1,0-.857h.643V65.929a.86.86,0,0,1,.857-.857h1.286v-.643a.429.429,0,1,1,.857,0v.643h1.5v-.643a.429.429,0,0,1,.857,0v.643h1.5v-.643a.429.429,0,1,1,.857,0v.643h1.286a.86.86,0,0,1,.857.857v1.286h.643a.429.429,0,1,1,0,.857h-.643v1.5Zm-1.5-3.429a.2.2,0,0,0-.214-.214H66.143a.2.2,0,0,0-.214.214v7.714a.2.2,0,0,0,.214.214h7.714a.2.2,0,0,0,.214-.214Zm-2.143,6.643H68.071a.86.86,0,0,1-.857-.857V68.071a.86.86,0,0,1,.857-.857h3.857a.86.86,0,0,1,.857.857v3.857A.86.86,0,0,1,71.929,72.786Zm0-4.5a.2.2,0,0,0-.214-.214H68.286a.2.2,0,0,0-.214.214v3.429a.2.2,0,0,0,.214.214h3.429a.2.2,0,0,0,.214-.214Z" transform="translate(-64 -64)"/></svg>