<svg xmlns="http://www.w3.org/2000/svg" width="23.25" height="24" viewBox="0 0 23.25 24"><path d="M21.833,23.749,18.665,20.48a4.881,4.881,0,0,1-6.7-.872,5.273,5.273,0,0,1,.282-6.966,4.875,4.875,0,0,1,6.748-.291,5.267,5.267,0,0,1,.844,6.917l3.168,3.27h0a.876.876,0,0,1,0,1.212.813.813,0,0,1-1.174,0ZM14.508,13.12a3.453,3.453,0,0,0-1.988,3.838,3.351,3.351,0,0,0,3.258,2.761h0a3.249,3.249,0,0,0,2.35-1,3.512,3.512,0,0,0,.413-4.33,3.293,3.293,0,0,0-2.762-1.524A3.222,3.222,0,0,0,14.508,13.12Zm-13.364,9.7A4.1,4.1,0,0,1,0,19.96V4.041A4.1,4.1,0,0,1,1.144,1.183,3.851,3.851,0,0,1,3.912,0H19.334A3.851,3.851,0,0,1,22.1,1.181,4.11,4.11,0,0,1,23.247,4.04v0l-.033,10.531a.831.831,0,1,1-1.662,0v0l.035-10.529a2.345,2.345,0,0,0-.658-1.645,2.218,2.218,0,0,0-1.594-.683H3.912a2.224,2.224,0,0,0-1.594.683A2.373,2.373,0,0,0,1.659,4.04V19.96A2.363,2.363,0,0,0,2.318,21.6a2.216,2.216,0,0,0,1.594.682h10.2a.857.857,0,0,1,0,1.713H3.907A3.843,3.843,0,0,1,1.144,22.816ZM8.306,18H4.984a.857.857,0,0,1,0-1.713h0l3.32,0a.824.824,0,0,1,.727.424.879.879,0,0,1,0,.862.824.824,0,0,1-.72.424ZM9.965,12.86H4.984a.856.856,0,0,1,0-1.712H9.965a.825.825,0,0,1,.719.429.881.881,0,0,1,0,.856A.825.825,0,0,1,9.965,12.86Zm8.3-5.138-13.287,0A.859.859,0,0,1,4.983,6L18.27,6a.859.859,0,0,1,0,1.718Z"/></svg>
