<svg xmlns="http://www.w3.org/2000/svg" width="12" height="8.484" viewBox="0 0 12 8.484"><defs><style>.a{fill:#f1f1f1;}</style></defs><path class="a" d="M63.577,187.4a6,6,0,0,1,.091,8.391l-.087.089-.593-.592a5.162,5.162,0,0,0,.081-7.21l-.084-.086.592-.592Zm-8.483,0,.592.592a5.162,5.162,0,0,0-.092,7.213l.083.086-.593.591a6,6,0,0,1,.01-8.483Zm1.184,1.184.591.593a3.489,3.489,0,0,0-.062,4.876l.069.071-.589.594a4.325,4.325,0,0,1-.009-6.134Zm6.113,0a4.326,4.326,0,0,1,.074,6.041l-.077.079-.592-.593a3.488,3.488,0,0,0,.071-4.865l-.069-.07Zm-4.939,1.19.594.59a1.814,1.814,0,0,0-.05,2.505l.055.057-.592.593a2.651,2.651,0,0,1-.008-3.746Zm3.759,0a2.651,2.651,0,0,1,.066,3.673l-.063.065-.594-.59a1.814,1.814,0,0,0,.056-2.5l-.058-.061.593-.591Zm-1.879.754a1.116,1.116,0,1,1-1.116,1.116A1.116,1.116,0,0,1,59.333,190.522Z" transform="translate(-53.333 -187.392)"/></svg>