<svg xmlns="http://www.w3.org/2000/svg" width="12" height="11.382" viewBox="0 0 12 11.382"><defs><style>.a{fill:#f1f1f1;}</style></defs><path class="a" d="M12.008,35V27.452a.786.786,0,0,0-.216-.576.772.772,0,0,0-.564-.252H.818a.807.807,0,0,0-.78.84v7.544a.513.513,0,0,0,.132.468.513.513,0,0,0,.468.132h3.6v1.2h-3v1.2H10.8l.024-1.2h-3v-1.2h3.586a.513.513,0,0,0,.468-.132.485.485,0,0,0,.132-.48ZM6.731,27.823h.876v6.585H6.731ZM4.44,30.21h.876V34.4H4.44Zm-2.291,4.2v-2.4h.876v2.4Zm7.748,0H9.022V29.023H9.9Z" transform="translate(-0.026 -26.624)"/></svg>