<svg xmlns="http://www.w3.org/2000/svg" width="23.369" height="24" viewBox="0 0 23.369 24"><path d="M19.172,23.744c-.869-.744-1.489-.637-2.531-.052a1.9,1.9,0,0,1-1.364.035c-.5-.177-1.011-.5-.852-1.24A1.864,1.864,0,0,0,13.115,20.2c-.745-.3-.637-.921-.62-1.4a1.5,1.5,0,0,1,.637-1.08c.973-.478,1.416-.851,1.33-2.41-.052-.831.513-1.028.991-1.24a1.356,1.356,0,0,1,1.17,0,1.856,1.856,0,0,0,2.586.017c.779-.62,1.222.035,1.79.336.55.284.513.672.371,1.188a1.637,1.637,0,0,0,1.045,1.949,1.175,1.175,0,0,1,.918,1.471,1.032,1.032,0,0,1-.762,1.274,1.537,1.537,0,0,0-1.133,2.071c.142.689-.336.973-.762,1.24a1.83,1.83,0,0,1-.89.381A.956.956,0,0,1,19.172,23.744Zm-3.56-4.976a2.186,2.186,0,0,0,2.285,2.39,2.176,2.176,0,0,0,2.251-1.967,2.319,2.319,0,0,0-2.32-2.586h-.057A2.187,2.187,0,0,0,15.612,18.768Zm-13.7,3.65C.513,22.382,0,21.832,0,20.45V1.873C0,.581.5.03,1.807.013q8.156-.026,16.313,0c1.15,0,1.752.568,1.77,1.825.044,3.47.009,6.96.009,10.361-.762.336-1.382.62-2.054.921a5.95,5.95,0,0,0-1.346-.637,3.011,3.011,0,0,0-3.47,3.047,1.025,1.025,0,0,1-.5.814,1.952,1.952,0,0,0-1.416,1.877c-.052,1.382-.159,2.815,1.631,3.348.142.035.194.336.284.513-.211.107-.443.319-.655.319-2.39.017-4.782.017-7.171.017-.732,0-1.464.008-2.2.008C2.644,22.425,2.278,22.423,1.912,22.417ZM9.944,9.965A1.213,1.213,0,0,0,11.2,8.833a1.235,1.235,0,0,0-1.133-1.451c-1.77-.09-3.56.035-5.332.09A1.144,1.144,0,0,0,3.621,8.8,1.206,1.206,0,0,0,4.985,9.988H7.412V9.983C8.261,9.983,9.113,10.017,9.944,9.965ZM5.057,2.437A1.438,1.438,0,0,0,3.586,3.8,1.364,1.364,0,0,0,5.057,5.059c3.241,0,6.465,0,9.706-.017,1.011,0,1.451-.5,1.433-1.434-.017-.727-.55-1.15-1.433-1.15-1.579-.038-3.137-.02-4.713-.02-1.11,0-2.221-.008-3.33-.008Q5.889,2.43,5.057,2.437Z"/></svg>
