<svg xmlns="http://www.w3.org/2000/svg" xmlns:xlink="http://www.w3.org/1999/xlink" width="92" height="85.996" viewBox="0 0 92 85.996"><defs><style>.a{fill:#ff4848;}.b{filter:url(#a);}</style><filter id="a" x="0" y="0" width="92" height="85.996" filterUnits="userSpaceOnUse"><feOffset input="SourceAlpha"/><feGaussianBlur stdDeviation="6" result="b"/><feFlood flood-color="red" flood-opacity="0.6"/><feComposite operator="in" in2="b"/><feComposite in="SourceGraphic"/></filter></defs><g class="b" transform="matrix(1, 0, 0, 1, 0, 0)"><path class="a" d="M54.9,117.739,32.933,79.688c-2.687-4.652-7.079-4.652-9.766,0L1.2,117.739c-2.687,4.657-.489,8.456,4.881,8.456H50.023C55.393,126.195,57.588,122.4,54.9,117.739ZM25.033,90.484a4.216,4.216,0,0,1,6.035-.017,4.462,4.462,0,0,1,1.178,3.165c0,1.091-1.639,9.111-2.186,14.945H26.112c-.479-5.835-2.258-13.855-2.258-14.945A4.466,4.466,0,0,1,25.033,90.484Zm5.98,27.743a4.227,4.227,0,0,1-5.925,0,3.94,3.94,0,0,1-1.24-2.932,4.187,4.187,0,0,1,7.164-2.958,4.042,4.042,0,0,1,1.24,2.958A3.943,3.943,0,0,1,31.013,118.228Z" transform="translate(17.95 -58.2)"/></g></svg>